<?xml version="1.0" encoding="UTF-8" standalone="no"?>
<!-- Created with Inkscape (http://www.inkscape.org/) -->

<svg
   xmlns:dc="http://purl.org/dc/elements/1.1/"
   xmlns:cc="http://creativecommons.org/ns#"
   xmlns:rdf="http://www.w3.org/1999/02/22-rdf-syntax-ns#"
   xmlns:svg="http://www.w3.org/2000/svg"
   xmlns="http://www.w3.org/2000/svg"
   xmlns:sodipodi="http://sodipodi.sourceforge.net/DTD/sodipodi-0.dtd"
   xmlns:inkscape="http://www.inkscape.org/namespaces/inkscape"
   version="1.1"
   width="266.68436"
   height="193.13106"
   id="svg2"
   xml:space="preserve"
   inkscape:version="0.48.4 r9939"
   sodipodi:docname="zurich.svg"><sodipodi:namedview
     pagecolor="#ffffff"
     bordercolor="#666666"
     borderopacity="1"
     objecttolerance="10"
     gridtolerance="10"
     guidetolerance="10"
     inkscape:pageopacity="0"
     inkscape:pageshadow="2"
     inkscape:window-width="1226"
     inkscape:window-height="679"
     id="namedview15"
     showgrid="true"
     inkscape:zoom="0.97319588"
     inkscape:cx="-27.529179"
     inkscape:cy="88.520305"
     inkscape:window-x="621"
     inkscape:window-y="305"
     inkscape:window-maximized="0"
     inkscape:current-layer="svg2"
     inkscape:snap-bbox="true"
     fit-margin-top="1"
     fit-margin-left="1"
     fit-margin-right="1"
     fit-margin-bottom="1"><inkscape:grid
       type="xygrid"
       id="grid2990"
       empspacing="5"
       visible="true"
       enabled="true"
       snapvisiblegridlinesonly="true"
       originx="7.4072612px"
       originy="-32.729696px" /></sodipodi:namedview><metadata
     id="metadata8"><rdf:RDF><cc:Work
         rdf:about=""><dc:format>image/svg+xml</dc:format><dc:type
           rdf:resource="http://purl.org/dc/dcmitype/StillImage" /><dc:title /></cc:Work></rdf:RDF></metadata><defs
     id="defs6" /><g
     transform="matrix(1.25,0,0,-1.25,7.4072612,225.86076)"
     id="g10"><g
       transform="scale(0.1,0.1)"
       id="g12"><path
         d="m 984.80227,1798.8861 c -211.21274,0 -382.43049,-175.8618 -382.43049,-392.7828 0,-89.57 29.20651,-172.1185 78.33865,-238.1946 l 317.92037,429.1339 -34.18425,-0.07 -33.99862,0 c -36.31546,0 -70.32653,-2.5808 -94.83375,-7.5213 -14.90375,-2.9993 -28.18901,-8.556 -38.9854,-16.3214 -12.70238,-9.1256 -28.58741,-28.5392 -38.92882,-47.5692 -1.20199,-2.2087 -2.92688,-5.58 -5.1724,-10.1021 l -18.61272,4.2083 31.16456,123.3171 398.2181,0 -316.39119,-434.5511 c 20.57982,1.8716 28.77756,2.2785 45.42658,2.2669 12.8529,0 32.33259,-0.8022 58.42208,-2.3948 l 56.21053,-3.4293 c 20.3104,-1.2439 37.4122,-1.8833 50.3714,-1.8833 29.0537,0 47.9324,2.3134 66.5961,8.1607 14.5438,4.5686 28.352,11.4273 40.9491,20.3553 22.1723,15.7052 43.8126,41.0476 56.7153,66.4131 1.3016,2.5575 3.3389,6.4402 5.7383,11.6715 l 16.8415,-4.4756 c -5.4101,-21.5178 -8.3868,-29.725 -16.7736,-48.9874 -16.9998,-39.0249 -36.1841,-65.1461 -62.5894,-85.2107 -27.0844,-20.5877 -57.1228,-30.7363 -92.6165,-31.3059 l -5.3875,-0.035 c -26.292,0 -46.6421,2.2552 -109.55634,12.1481 -64.04495,10.0904 -96.61522,13.5081 -128.80181,13.5081 -21.55317,0 -41.59877,-1.6391 -62.29855,-5.0685 -27.47258,-4.5685 -38.22936,-7.87 -63.18251,-19.5531 69.90663,-78.2473 170.28514,-127.3103 281.83128,-127.3103 211.20483,0 382.42593,175.856 382.42593,392.8002 0,216.921 -171.2211,392.7828 -382.42593,392.7828"
         id="path16"
         style="fill:#2058af;fill-opacity:1;fill-rule:evenodd;stroke:none"
         inkscape:connector-curvature="0" /><path
         d="m 300.62661,664.63145 -292.7737903,0 -35.9617597,-81.61506 c 11.99465,6.56575 16.76503,8.87213 27.26974966,13.178 16.61031034,6.79244 34.90046034,12.11433 52.62923034,15.2891 15.341763,2.74697 29.489465,4.01873 52.47439,4.6953 10.2667,0.29992 19.89619,0.44989 28.893,0.44989 l 43.34516,0 -227.76068,-334.3164 321.95721,0 37.14734,87.21828 c -12.92308,-7.62362 -17.54768,-10.09857 -27.41598,-14.69041 -18.70213,-8.69079 -39.15858,-15.12518 -60.15037,-18.93118 -16.59695,-3.00156 -35.29342,-4.68601 -58.52282,-5.29399 -7.77218,-0.19995 -17.69708,-0.29992 -29.78035,-0.29992 l -57.045792,0 225.695462,334.31639"
         id="path18"
         style="fill:#15356f;fill-opacity:1;fill-rule:evenodd;stroke:none"
         inkscape:connector-curvature="0" /><path
         d="m 1268.2638,282.31228 c -5.7949,5.20331 -7.8095,7.57363 -11.5106,13.47793 -2.3542,3.78158 -4.2896,7.69221 -5.7496,11.66095 -3.1917,8.70474 -5.1498,21.51541 -5.1498,33.6123 l 0,230.29546 0.1472,22.41052 c 0.1584,25.6062 0.8149,32.60789 3.9726,43.0029 1.2563,4.10941 3.0333,8.12349 5.3083,11.95623 3.8594,6.50763 6.4853,9.49523 14.0118,15.90288 l -119.565,0 c 7.8321,-6.92031 10.3108,-9.63124 13.8647,-15.14494 2.5013,-3.89551 4.4367,-8.07816 5.7497,-12.41425 2.7842,-9.2732 3.6444,-18.45921 3.8368,-41.18244 0.091,-11.64352 0.1358,-19.31713 0.1358,-23.01385 l 0,-228.93418 c 0,-13.40005 -2.2749,-27.69521 -5.8854,-36.94516 -1.5393,-3.91411 -3.52,-7.67361 -5.9081,-11.20642 -2.8296,-4.19195 -4.765,-6.49368 -11.3408,-13.47793 l 118.0824,0"
         id="path20"
         style="fill:#15356f;fill-opacity:1;fill-rule:evenodd;stroke:none"
         inkscape:connector-curvature="0" /><path
         d="m 1642.1027,661.14864 c -9.1678,3.05154 -12.7896,4.04082 -22.7043,6.20655 -21.38,4.66391 -42.0243,6.8122 -65.4303,6.8122 -40.021,0 -74.5753,-6.60296 -106.1643,-20.28897 -18.7203,-8.11536 -35.9465,-18.60917 -51.1468,-31.18734 -45.8951,-37.95885 -70.7951,-92.93193 -70.7951,-156.25636 0,-61.4749 24.0398,-114.57288 67.9882,-150.20209 36.286,-29.41105 82.9282,-44.24677 139.0889,-44.24677 35.0297,0 67.6939,5.36258 104.444,17.14676 1.3468,0.43128 3.3615,1.08576 6.0439,1.96577 l 0,69.49609 c -8.9074,-6.12168 -11.952,-8.11535 -17.396,-11.35289 -7.1531,-4.26402 -14.7816,-8.1607 -22.8514,-11.66096 -22.4439,-9.74982 -42.8958,-14.22774 -64.9549,-14.22774 -38.561,0 -71.4969,14.14172 -95.8762,41.18244 -24.1077,26.75126 -37.1575,63.91497 -37.1575,105.90999 0,40.09668 12.0991,77.22319 33.6263,103.18395 9.3148,11.23898 20.7461,20.82488 33.7507,28.31366 21.0518,12.11549 45.4877,18.33598 71.9948,18.33598 22.7609,0 44.8086,-4.54534 66.8791,-13.79064 13.7515,-5.76712 18.7768,-8.59546 30.6609,-17.26533 l 0,71.9257"
         id="path22"
         style="fill:#15356f;fill-opacity:1;fill-rule:evenodd;stroke:none"
         inkscape:connector-curvature="0" /><path
         d="m 1968.4845,455.83628 0,-93.27137 c 0,-20.71096 -0.3169,-28.25437 -1.6298,-38.91675 -0.7244,-5.86244 -2.0599,-11.40172 -3.984,-16.50157 -2.6938,-7.14235 -7.0852,-13.68137 -13.4121,-19.97975 -1.1091,-1.11715 -2.8408,-2.72953 -5.161,-4.85456 l 118.9652,0 c -4.98,5.04521 -6.7796,7.16095 -10.0279,11.81556 -2.9428,4.22799 -5.263,8.44202 -6.9267,12.56887 -3.5879,8.93259 -4.5273,15.68085 -4.8555,34.51671 -0.2038,11.29709 -0.3056,17.90935 -0.3056,19.83443 l 0.3056,210.31107 0,22.71393 c 0,16.80614 1.3129,29.76676 4.1198,40.42449 1.3129,4.94989 3.2936,9.69053 5.8967,14.08126 3.9274,6.59831 6.7343,9.65915 14.7476,16.05285 l -121.4778,0 c 6.9833,-5.98102 9.4167,-8.76867 13.5704,-15.59366 2.6825,-4.42328 4.765,-8.89655 6.1911,-13.32797 2.8748,-8.95468 3.984,-20.11227 3.984,-40.12457 l 0,-92.96797 -166.875,0 0,69.80415 c 0,21.10737 0.3056,34.9573 1.03,45.26976 0.43,6.29839 1.426,11.88765 2.9427,16.65619 2.6484,8.28275 9.3601,19.64379 15.4832,26.1921 0.8828,0.94511 2.2523,2.3029 4.1312,4.09197 l -119.2708,0 c 7.1417,-7.57479 9.0092,-9.82654 12.2349,-14.69041 2.6145,-3.92341 4.7423,-8.30135 6.3382,-13.02339 3.2936,-9.68124 3.8255,-14.9078 4.1311,-40.4245 l 0.2943,-24.22517 0,-209.24854 c 0,-21.31545 -0.3396,-30.60725 -1.4714,-40.27453 -0.5885,-4.99988 -1.8222,-10.08113 -3.6784,-15.14378 -3.0559,-8.30136 -7.4473,-14.89966 -14.3061,-21.50145 -0.8942,-0.86374 -2.275,-2.1262 -4.1199,-3.7874 l 117.7768,0 c -5.1045,5.46255 -6.8927,7.74219 -9.8807,12.56886 -2.241,3.65139 -4.2217,7.66082 -5.8968,11.96088 -3.8821,10.04044 -5.0592,17.26068 -5.444,33.46233 -0.2038,8.1293 -0.2943,15.75293 -0.2943,22.86389 l 0,92.66804 166.875,0"
         id="path24"
         style="fill:#15356f;fill-opacity:1;fill-rule:evenodd;stroke:none"
         inkscape:connector-curvature="0" /><path
         d="m 351.33197,664.63145 c 7.37491,-6.17631 9.90792,-9.05929 13.56029,-15.44835 2.38247,-4.16056 4.173,-8.64662 5.31387,-13.32332 1.3978,-5.74504 2.18894,-11.63887 2.35645,-17.5606 0.11544,-4.20939 0.2173,-12.13293 0.29653,-23.7718 l 0.14601,-22.10595 0,-109.31957 c 0,-38.60287 0.292,-51.89829 1.47249,-67.37455 2.09499,-27.40923 10.56663,-50.21849 26.09289,-70.26217 15.713,-20.27618 37.04095,-35.49669 62.79882,-44.81058 19.9924,-7.23883 42.47819,-10.81698 67.8818,-10.81698 27.97284,0 55.30507,4.35469 75.40725,12.02481 21.08008,8.04212 41.35543,21.99667 55.42391,38.15299 17.17644,19.72632 26.88969,43.63529 30.07235,74.04608 1.91051,18.19533 2.5115,34.54345 2.5115,68.43706 l 0,109.92291 -0.15053,21.65142 -0.0125,3.05619 c 0,19.29504 1.53814,31.41983 3.37734,37.87166 3.86402,13.53257 10.58814,21.46076 16.68976,26.29673 2.35191,1.86696 3.07288,2.41682 4.25337,3.33402 l -110.25021,0 c 4.53179,-6.95286 5.98617,-9.94046 8.10833,-16.66083 1.41929,-4.48722 2.44925,-9.29993 3.09438,-14.38119 1.71583,-13.58255 2.35644,-30.83393 2.35644,-63.44299 l 0,-118.70554 c 0,-33.00779 -0.78661,-49.53727 -3.08986,-64.79962 -1.55172,-10.24504 -4.80116,-19.70308 -9.58535,-27.85912 -9.39067,-16.02495 -25.81106,-27.79518 -45.8476,-32.859 -8.011,-2.02506 -16.87538,-3.04689 -26.41207,-3.04689 -19.19673,0 -35.78915,4.07802 -50.53785,12.43401 -9.38615,5.31724 -16.96027,12.10619 -22.11456,19.82979 -10.20445,15.30769 -13.19697,30.73861 -13.56029,69.95876 l -0.4414,48.14344 0,96.90417 c 0,32.57767 0.65419,50.26034 2.36096,63.44299 1.2948,10.05323 4.26582,19.00326 9.13376,27.5592 0.45046,0.77654 1.13634,1.93904 2.06896,3.48282 l -112.77529,0"
         id="path26"
         style="fill:#15356f;fill-opacity:1;fill-rule:evenodd;stroke:none"
         inkscape:connector-curvature="0" /><path
         d="m 875.84047,360.89789 c 0,-6.98774 0.0441,-13.39074 0.146,-19.22645 0.29654,-17.66872 1.56531,-26.88263 4.86342,-35.27814 1.5868,-4.05594 3.71801,-7.9654 6.34043,-11.66212 3.29811,-4.64532 4.86342,-6.53437 10.31424,-12.4189 l -118.37212,0 c 6.90181,6.47043 9.04095,8.77332 12.3832,13.33262 2.71523,3.69556 4.90303,7.77823 6.48644,12.10968 3.06382,8.37924 4.27487,18.82306 4.27487,36.94631 l 0,250.88436 c 0,20.27618 -1.0741,32.13709 -3.68293,40.73255 -1.46344,4.79528 -3.64219,9.48594 -6.48531,13.92782 -3.52334,5.49393 -5.90695,8.23277 -12.5292,14.38583 l 96.11156,0 c 11.86596,0 23.36521,-0.15926 34.49323,-0.45918 29.63095,-0.80328 46.97942,-2.61561 63.68277,-6.65643 23.77266,-5.75433 45.12663,-17.89656 60.44573,-34.3714 16.6536,-17.91865 25.2327,-39.25154 25.2327,-62.77456 0,-9.86723 -1.5619,-19.7984 -4.6064,-29.43895 -5.4328,-17.24673 -14.6446,-30.93739 -29.3277,-43.60274 -12.9581,-11.17969 -27.15902,-19.6217 -45.84644,-27.25462 -6.57019,-2.6842 -9.34201,-3.67348 -16.50867,-5.90314 l 57.77921,-69.80415 c 7.0218,-8.46875 16.0673,-18.87306 27.124,-31.18733 17.4299,-19.39502 29.0537,-31.63257 42.1714,-44.36534 5.6478,-5.4951 11.0126,-10.49498 16.0605,-14.99034 4.8215,-4.29076 7.2889,-6.37975 13.5705,-11.51099 l -46.7327,0 c -6.9041,0 -13.3441,0.10462 -19.3088,0.31271 -16.1725,0.54056 -26.2875,2.97946 -37.0092,8.92794 -12.4806,6.92496 -25.14786,17.23743 -38.47273,31.33729 -4.13,4.36864 -10.17389,11.23432 -18.13169,20.59819 -7.03877,8.27346 -12.19759,14.43118 -15.48212,18.46735 l -68.98419,84.94445 0,-86.00232 z m 6.03032,118.05222 c 5.35009,0 11.85351,0.57195 19.47176,1.717 20.01843,3.00155 33.56514,7.51551 46.87756,15.59367 6.90974,4.19543 12.77707,9.04535 17.39262,14.38583 9.53216,11.01578 14.47027,25.72014 14.47027,43.08893 0,19.95301 -6.5385,35.96982 -19.18768,46.99955 -7.24249,6.31582 -15.83637,11.01112 -25.21007,13.77669 -14.04584,4.14661 -31.80969,6.41695 -50.15304,6.41695 -3.03779,0 -5.023,-0.0407 -9.69174,-0.20459 l 0,-141.57408 c 2.90537,-0.16391 4.16056,-0.19995 6.03032,-0.19995"
         id="path28"
         style="fill:#15356f;fill-opacity:1;fill-rule:evenodd;stroke:none"
         inkscape:connector-curvature="0" /></g></g></svg>