<?xml version="1.0" encoding="UTF-8" standalone="no"?>
<!-- Created with Inkscape (http://www.inkscape.org/) -->

<svg
   xmlns:dc="http://purl.org/dc/elements/1.1/"
   xmlns:cc="http://creativecommons.org/ns#"
   xmlns:rdf="http://www.w3.org/1999/02/22-rdf-syntax-ns#"
   xmlns:svg="http://www.w3.org/2000/svg"
   xmlns="http://www.w3.org/2000/svg"
   xmlns:sodipodi="http://sodipodi.sourceforge.net/DTD/sodipodi-0.dtd"
   xmlns:inkscape="http://www.inkscape.org/namespaces/inkscape"
   version="1.1"
   width="149.82001"
   height="149.61925"
   id="svg2"
   xml:space="preserve"
   inkscape:version="0.48.4 r9939"
   sodipodi:docname="porto-seguro.svg"><sodipodi:namedview
     pagecolor="#ffffff"
     bordercolor="#666666"
     borderopacity="1"
     objecttolerance="10"
     gridtolerance="10"
     guidetolerance="10"
     inkscape:pageopacity="0"
     inkscape:pageshadow="2"
     inkscape:window-width="640"
     inkscape:window-height="480"
     id="namedview23"
     showgrid="false"
     fit-margin-left="3"
     fit-margin-top="3"
     fit-margin-right="3"
     fit-margin-bottom="3"
     inkscape:zoom="1.3681159"
     inkscape:cx="58.736375"
     inkscape:cy="74.879244"
     inkscape:window-x="412"
     inkscape:window-y="203"
     inkscape:window-maximized="0"
     inkscape:current-layer="svg2" /><metadata
     id="metadata8"><rdf:RDF><cc:Work
         rdf:about=""><dc:format>image/svg+xml</dc:format><dc:type
           rdf:resource="http://purl.org/dc/dcmitype/StillImage" /><dc:title /></cc:Work></rdf:RDF></metadata><defs
     id="defs6" /><g
     transform="matrix(1.25,0,0,-1.25,-8.6153199,160.99)"
     id="g10"><g
       transform="scale(0.1,0.1)"
       id="g12"><path
         d="m 362.785,1263.92 624.606,0 c 14.139,0 25.729,-11.58 25.729,-25.73 l 0,-610.62 c 0,-14.156 -11.59,-25.726 -25.729,-25.726 l -624.606,0 c -14.148,0 -25.722,11.57 -25.722,25.726 l 0,610.62 c 0,14.15 11.574,25.73 25.722,25.73"
         id="path14"
         style="fill:#3ab6e7;fill-opacity:1;fill-rule:evenodd;stroke:none"
         inkscape:connector-curvature="0" /><path
         d="m 246.453,508.609 95.098,-0.918 c 28.426,-0.261 51.605,-20.523 53.125,-52.8 1.523,-32.286 -15.524,-67.594 -68.86,-69.395 l -31.902,-0.012 -0.441,-63.796 -46.325,0 -0.695,186.921 z m 47.461,-35.91 0.211,-51.894 c 7.66,-0.571 27.809,0.281 33.977,0.355 30.996,0.352 31.675,50.781 1.218,51.539 l -35.406,0"
         id="path16"
         style="fill:#231f20;fill-opacity:1;fill-rule:evenodd;stroke:none"
         inkscape:connector-curvature="0" /><path
         d="m 501.742,509.918 c 56.598,0 102.492,-44.406 102.492,-99.16 0,-54.75 -45.894,-99.141 -102.492,-99.141 -56.594,0 -102.504,44.391 -102.504,99.141 0,54.754 45.91,99.16 102.504,99.16 z m 0.223,-37.219 c 35.711,0 54.633,-27.738 54.633,-61.941 0,-34.207 -18.047,-61.063 -54.633,-61.945 -36.586,-0.875 -55.059,27.738 -55.059,61.945 0,34.203 19.34,61.941 55.059,61.941"
         id="path18"
         style="fill:#231f20;fill-opacity:1;fill-rule:evenodd;stroke:none"
         inkscape:connector-curvature="0" /><path
         d="m 1031.14,514.293 c 56.6,0 102.5,-44.41 102.5,-99.16 0,-54.754 -45.9,-99.153 -102.5,-99.153 -56.585,0 -102.503,44.399 -102.503,99.153 0,54.75 45.918,99.16 102.503,99.16 z m 0.22,-37.203 c 35.73,0 54.64,-27.754 54.64,-61.949 0,-34.203 -18.04,-61.075 -54.64,-61.942 -36.59,-0.89 -55.071,27.739 -55.071,61.942 0,34.195 19.359,61.949 55.071,61.949"
         id="path20"
         style="fill:#231f20;fill-opacity:1;fill-rule:evenodd;stroke:none"
         inkscape:connector-curvature="0" /><path
         d="m 616.211,509.043 95.098,-0.902 c 28.421,-0.274 51.578,-20.586 53.113,-52.942 1.078,-22.777 -7.067,-44.777 -30.586,-56.429 l 0.219,-0.133 61.633,-77.403 -61.2,0.457 -49.922,68.489 -20.906,-0.145 -0.433,-68.344 -46.336,0 -0.68,187.352 z m 47.664,-35.477 0,-52.238 c 7.652,-0.574 27.813,-0.351 33.977,-0.293 31.007,0.363 31.89,51.746 1.433,52.531 l -35.41,0"
         id="path22"
         style="fill:#231f20;fill-opacity:1;fill-rule:evenodd;stroke:none"
         inkscape:connector-curvature="0" /><path
         d="m 772.508,508.82 163.902,0 0,-40.273 -58.133,0 0,-147.09 -47.203,0 0,147.09 -58.566,0 0,40.273"
         id="path24"
         style="fill:#231f20;fill-opacity:1;fill-rule:evenodd;stroke:none"
         inkscape:connector-curvature="0" /><path
         d="m 1037.92,282.418 c 47.67,0 86.33,-37.395 86.33,-83.5 0,-46.094 -38.66,-83.496 -86.33,-83.496 -47.647,0 -86.295,37.402 -86.295,83.496 0,46.105 38.648,83.5 86.295,83.5 z m 0.19,-31.336 c 30.08,0 46.02,-23.348 46.02,-52.164 0,-28.797 -15.19,-51.426 -46.02,-52.152 -30.81,-0.743 -46.376,23.355 -46.376,52.152 0,28.816 16.326,52.164 46.376,52.164"
         id="path26"
         style="fill:#231f20;fill-opacity:1;fill-rule:evenodd;stroke:none"
         inkscape:connector-curvature="0" /><path
         d="m 813.73,281.398 83.516,-0.781 c 24.961,-0.242 45.32,-18.082 46.652,-46.496 0.954,-20.016 -6.199,-39.336 -26.867,-49.578 l 0.203,-0.121 54.141,-67.973 -53.754,0.395 -43.875,60.16 -18.344,-0.129 -0.382,-60.031 -40.7,0 -0.59,164.554 z m 41.844,-31.16 0,-45.871 c 6.742,-0.512 24.446,-0.328 29.852,-0.273 27.234,0.324 28.019,45.453 1.269,46.144 l -31.121,0"
         id="path28"
         style="fill:#231f20;fill-opacity:1;fill-rule:evenodd;stroke:none"
         inkscape:connector-curvature="0" /><path
         d="m 345.34,237.246 15.293,31.738 c 0,0 -37.59,21.246 -74.738,11.18 -37.157,-10.074 -51.372,-59.101 -19.903,-80.777 31.477,-21.672 56.649,-16.973 54.633,-35.891 -2.867,-27.074 -49,-9.414 -69.512,-0.226 l -12.004,-32.832 c 0,0 18.793,-11.817 53.106,-15.102 34.32,-3.289 67.406,15.539 68.621,49.035 2.027,56.317 -85.441,44.102 -69.594,76.891 6.918,14.301 33.543,5.933 54.098,-4.016"
         id="path30"
         style="fill:#231f20;fill-opacity:1;fill-rule:evenodd;stroke:none"
         inkscape:connector-curvature="0" /><path
         d="m 481.906,277.512 0,-34.582 -64.246,0 0,-25.125 58.567,0 0,-34.586 -58.567,0 0,-28.164 69.059,0 0,-34.586 -110.137,-0.133 0,157.176 105.324,0"
         id="path32"
         style="fill:#231f20;fill-opacity:1;fill-rule:evenodd;stroke:none"
         inkscape:connector-curvature="0" /><path
         d="m 621.344,238.25 c -53.879,22.352 -88.239,-6.734 -91.617,-37.187 -3.172,-28.625 21.312,-58.43 72.597,-47.954 l -0.23,55.364 40.211,0 -0.2,-74.637 c -66.21,-41.5899 -153.453,-4.481 -151.304,63.594 2.949,92.105 105.191,95.105 145.394,71.894 L 621.344,238.25"
         id="path34"
         style="fill:#231f20;fill-opacity:1;fill-rule:evenodd;stroke:none"
         inkscape:connector-curvature="0" /><path
         d="m 695.207,280.938 -40.215,0.445 0,-97.192 c -0.816,-45.714 36.367,-67.816 73.637,-67.711 37.43,0.075 74.926,22.555 74.121,67.711 l 0,97.192 -40.215,-0.445 -0.222,-94.774 c 0.625,-23.184 -11.485,-33.93 -33.45,-33.93 -21.961,0 -34.066,10.746 -33.445,33.93 l -0.211,94.774"
         id="path36"
         style="fill:#231f20;fill-opacity:1;fill-rule:evenodd;stroke:none"
         inkscape:connector-curvature="0" /><path
         d="m 374.512,1221.04 c 23.629,1.13 310.5,11.3 475.152,-150.9 0,0 -130.715,98.15 -425.5,54.63 -14.621,38.16 -31.656,70.21 -49.652,96.27"
         id="path38"
         style="fill:#ffffff;fill-opacity:1;fill-rule:evenodd;stroke:none"
         inkscape:connector-curvature="0" /><path
         d="m 926.152,962.348 c -89.089,100.762 -377.539,51.402 -466.468,26.726 -5.598,34.886 -13.043,66.816 -21.883,95.856 64.308,9.82 431.523,57.61 488.351,-122.582"
         id="path40"
         style="fill:#ffffff;fill-opacity:1;fill-rule:evenodd;stroke:none"
         inkscape:connector-curvature="0" /><path
         d="m 465.688,943.625 c 70.035,19.316 465.257,119.425 504.824,-69.211 -124.617,83.582 -422.114,-10.086 -500.364,-39.078 0.743,23.781 0.278,49.184 -1.636,76.363 -0.758,10.875 -1.739,21.489 -2.824,31.926"
         id="path42"
         style="fill:#ffffff;fill-opacity:1;fill-rule:evenodd;stroke:none"
         inkscape:connector-curvature="0" /><path
         d="m 466.273,782.871 c 168.586,69.891 693.497,201.527 463.657,-90.008 49.586,91.996 21.078,103.95 -46.282,100.289 C 754.949,786.148 489.539,673.25 424.285,641.246 c 19.512,35.797 34.918,82.484 41.988,141.625"
         id="path44"
         style="fill:#ffffff;fill-opacity:1;fill-rule:evenodd;stroke:none"
         inkscape:connector-curvature="0" /></g></g></svg>