<?xml version="1.0" encoding="UTF-8" standalone="no"?>
<!-- Created with Inkscape (http://www.inkscape.org/) -->

<svg
   xmlns:dc="http://purl.org/dc/elements/1.1/"
   xmlns:cc="http://creativecommons.org/ns#"
   xmlns:rdf="http://www.w3.org/1999/02/22-rdf-syntax-ns#"
   xmlns:svg="http://www.w3.org/2000/svg"
   xmlns="http://www.w3.org/2000/svg"
   version="1.1"
   width="615.34998"
   height="557.96252"
   id="svg2"
   xml:space="preserve"><metadata
     id="metadata8"><rdf:RDF><cc:Work
         rdf:about=""><dc:format>image/svg+xml</dc:format><dc:type
           rdf:resource="http://purl.org/dc/dcmitype/StillImage" /><dc:title></dc:title></cc:Work></rdf:RDF></metadata><defs
     id="defs6"><clipPath
       id="clipPath20"><path
         d="m 3176.03,4297.78 c -403.67,0 -730.88,-327.23 -730.88,-730.87 0,-403.65 327.21,-730.88 730.88,-730.88 403.64,0 730.85,327.23 730.85,730.88 0,403.64 -327.21,730.87 -730.85,730.87 z"
         id="path22" /></clipPath><radialGradient
       cx="0"
       cy="0"
       r="1"
       fx="0"
       fy="0"
       id="radialGradient24"
       gradientUnits="userSpaceOnUse"
       gradientTransform="matrix(51.6803,-51.6803,-51.6803,-51.6803,317.602,356.69)"
       spreadMethod="pad"><stop
         id="stop26"
         style="stop-color:#fffbf0;stop-opacity:1"
         offset="0" /><stop
         id="stop28"
         style="stop-color:#debf52;stop-opacity:1"
         offset="0.28455299" /><stop
         id="stop30"
         style="stop-color:#bf8f17;stop-opacity:1"
         offset="0.60162598" /><stop
         id="stop32"
         style="stop-color:#906618;stop-opacity:1"
         offset="0.804878" /><stop
         id="stop34"
         style="stop-color:#614615;stop-opacity:1"
         offset="1" /></radialGradient><radialGradient
       cx="0"
       cy="0"
       r="1"
       fx="0"
       fy="0"
       id="radialGradient38"
       gradientUnits="userSpaceOnUse"
       gradientTransform="matrix(78.5581,-78.5581,-78.5581,-78.5581,302.417,389.241)"
       spreadMethod="pad"><stop
         id="stop40"
         style="stop-color:#fffbf0;stop-opacity:1"
         offset="0" /><stop
         id="stop42"
         style="stop-color:#debf52;stop-opacity:1"
         offset="0.349594" /><stop
         id="stop44"
         style="stop-color:#bf8f17;stop-opacity:1"
         offset="0.60162598" /><stop
         id="stop46"
         style="stop-color:#906618;stop-opacity:1"
         offset="0.804878" /><stop
         id="stop48"
         style="stop-color:#614615;stop-opacity:1"
         offset="1" /></radialGradient><clipPath
       id="clipPath56"><path
         d="m 1735.41,2334.63 c -205.47,363.83 -395.14,767.21 -474.04,1082.28 -36.47,145.58 -43.48,275.22 -42.66,360.68 -128.08,-213.35 -201.78,-463.07 -201.78,-730.03 0,-5.3 0.15,-10.56 0.2,-15.85 82.55,-311.37 264.72,-802.58 645.25,-1174.65 88.26,-57.58 183.28,-105.64 283.67,-142.66 l 206.8,-58.78 c 54.3,-11.03 109.73,-18.91 166.09,-23.57 -120.3,78.47 -337.79,267.46 -583.53,702.58 z"
         id="path58" /></clipPath><radialGradient
       cx="0"
       cy="0"
       r="1"
       fx="0"
       fy="0"
       id="radialGradient60"
       gradientUnits="userSpaceOnUse"
       gradientTransform="matrix(214.042,0,0,-214.042,200.242,348.254)"
       spreadMethod="pad"><stop
         id="stop62"
         style="stop-color:#e5f2eb;stop-opacity:1"
         offset="0" /><stop
         id="stop64"
         style="stop-color:#8bc5ae;stop-opacity:1"
         offset="0.17886201" /><stop
         id="stop66"
         style="stop-color:#45a78c;stop-opacity:1"
         offset="0.418699" /><stop
         id="stop68"
         style="stop-color:#287b5b;stop-opacity:1"
         offset="0.60162598" /><stop
         id="stop70"
         style="stop-color:#1b543f;stop-opacity:1"
         offset="0.804878" /><stop
         id="stop72"
         style="stop-color:#14402f;stop-opacity:1"
         offset="1" /></radialGradient><clipPath
       id="clipPath80"><path
         d="m 3016.05,2094.89 c -144.22,163.7 -411.69,496.31 -578.66,837.39 -157.86,322.48 -555.85,1113.91 -404.41,1477.24 -175.05,-51.91 -336.01,-136.57 -475.71,-247 -20,-62.28 -34.73,-162.94 -3.48,-305.77 57.59,-263.17 331.15,-1108.66 720.53,-1613.56 155.41,-201.51 320.97,-419.28 462.5,-513.76 32.51,-21.7 63.91,-36.84 93.1,-47.35 168.68,48.4 324.49,127.21 461.13,230.12 -25.45,8.43 -52.73,18.99 -80.49,32.24 -68.89,32.87 -140.82,89.53 -194.51,150.45 z"
         id="path82" /></clipPath><radialGradient
       cx="0"
       cy="0"
       r="1"
       fx="0"
       fy="0"
       id="radialGradient84"
       gradientUnits="userSpaceOnUse"
       gradientTransform="matrix(214.042,0,0,-214.042,200.242,348.254)"
       spreadMethod="pad"><stop
         id="stop86"
         style="stop-color:#e5f2eb;stop-opacity:1"
         offset="0" /><stop
         id="stop88"
         style="stop-color:#8bc5ae;stop-opacity:1"
         offset="0.17886201" /><stop
         id="stop90"
         style="stop-color:#45a78c;stop-opacity:1"
         offset="0.418699" /><stop
         id="stop92"
         style="stop-color:#287b5b;stop-opacity:1"
         offset="0.60162598" /><stop
         id="stop94"
         style="stop-color:#1b543f;stop-opacity:1"
         offset="0.804878" /><stop
         id="stop96"
         style="stop-color:#14402f;stop-opacity:1"
         offset="1" /></radialGradient><clipPath
       id="clipPath104"><path
         d="m 3691.38,2836.03 c -124.12,113.47 -443.34,547.55 -536.67,804.21 -66.19,182.04 -153.29,408.02 -146.85,554.1 1.25,28.33 6.51,66.74 26.85,78.4 31.14,17.87 35.54,15.97 53.36,20.35 4.13,1.01 7.5,1.25 15.07,1.09 -164.06,84.83 -361.05,154.56 -554.64,169.54 -37.13,-53.87 -62.35,-158.25 -7.12,-360.14 106.67,-390 338.42,-1131.36 862.55,-1650.69 0,0 110.7,-135.56 259.13,-123.54 87.01,148.18 147.91,313.51 176.41,489.72 -50.44,-20.48 -103.84,-23.48 -148.09,16.96 z"
         id="path106" /></clipPath><radialGradient
       cx="0"
       cy="0"
       r="1"
       fx="0"
       fy="0"
       id="radialGradient108"
       gradientUnits="userSpaceOnUse"
       gradientTransform="matrix(214.042,0,0,-214.042,200.242,348.254)"
       spreadMethod="pad"><stop
         id="stop110"
         style="stop-color:#e5f2eb;stop-opacity:1"
         offset="0" /><stop
         id="stop112"
         style="stop-color:#8bc5ae;stop-opacity:1"
         offset="0.17886201" /><stop
         id="stop114"
         style="stop-color:#45a78c;stop-opacity:1"
         offset="0.418699" /><stop
         id="stop116"
         style="stop-color:#287b5b;stop-opacity:1"
         offset="0.60162598" /><stop
         id="stop118"
         style="stop-color:#1b543f;stop-opacity:1"
         offset="0.804878" /><stop
         id="stop120"
         style="stop-color:#14402f;stop-opacity:1"
         offset="1" /></radialGradient></defs><g
     transform="matrix(1.25,0,0,-1.25,0,557.9625)"
     id="g10"><g
       transform="scale(0.1,0.1)"
       id="g12"><path
         d="m 1164.71,3343.58 c 0,0 118.59,126.72 445.73,-197.63 327.14,-324.36 597.61,-655.71 597.61,-655.71 0,0 -398.15,1520.56 -159.92,1415.28 238.24,-105.28 429.91,-338.61 429.91,-338.61 l 179.17,460.83 c 0,0 -412.5,507.5 -670,365 0,0 -445,-315 -375,-667.5 0,0 -312.5,305 -409.67,24.81 -89.35,-257.64 -37.83,-406.47 -37.83,-406.47"
         id="path14"
         style="fill:#043b2b;fill-opacity:1;fill-rule:nonzero;stroke:none" /><g
         id="g16"><g
           clip-path="url(#clipPath20)"
           id="g18"><path
             d="m 3176.03,4297.78 c -403.67,0 -730.88,-327.23 -730.88,-730.87 0,-403.65 327.21,-730.88 730.88,-730.88 403.64,0 730.85,327.23 730.85,730.88 0,403.64 -327.21,730.87 -730.85,730.87"
             id="path36"
             style="fill:url(#radialGradient24);fill-opacity:1;fill-rule:nonzero;stroke:none" /><path
             d="m 3176.03,4297.78 c -403.67,0 -730.88,-327.23 -730.88,-730.87 0,-403.65 327.21,-730.88 730.88,-730.88 403.64,0 730.85,327.23 730.85,730.88 0,403.64 -327.21,730.87 -730.85,730.87"
             id="path50"
             style="fill:url(#radialGradient38);fill-opacity:1;fill-rule:nonzero;stroke:none" /></g></g><g
         id="g52"><g
           clip-path="url(#clipPath56)"
           id="g54"><path
             d="m 1735.41,2334.63 c -205.47,363.83 -395.14,767.21 -474.04,1082.28 -36.47,145.58 -43.48,275.22 -42.66,360.68 -128.08,-213.35 -201.78,-463.07 -201.78,-730.03 0,-5.3 0.15,-10.56 0.2,-15.85 82.55,-311.37 264.72,-802.58 645.25,-1174.65 88.26,-57.58 183.28,-105.64 283.67,-142.66 l 206.8,-58.78 c 54.3,-11.03 109.73,-18.91 166.09,-23.57 -120.3,78.47 -337.79,267.46 -583.53,702.58"
             id="path74"
             style="fill:url(#radialGradient60);fill-opacity:1;fill-rule:nonzero;stroke:none" /></g></g><g
         id="g76"><g
           clip-path="url(#clipPath80)"
           id="g78"><path
             d="m 3016.05,2094.89 c -144.22,163.7 -411.69,496.31 -578.66,837.39 -157.86,322.48 -555.85,1113.91 -404.41,1477.24 -175.05,-51.91 -336.01,-136.57 -475.71,-247 -20,-62.28 -34.73,-162.94 -3.48,-305.77 57.59,-263.17 331.15,-1108.66 720.53,-1613.56 155.41,-201.51 320.97,-419.28 462.5,-513.76 32.51,-21.7 63.91,-36.84 93.1,-47.35 168.68,48.4 324.49,127.21 461.13,230.12 -25.45,8.43 -52.73,18.99 -80.49,32.24 -68.89,32.87 -140.82,89.53 -194.51,150.45"
             id="path98"
             style="fill:url(#radialGradient84);fill-opacity:1;fill-rule:nonzero;stroke:none" /></g></g><g
         id="g100"><g
           clip-path="url(#clipPath104)"
           id="g102"><path
             d="m 3691.38,2836.03 c -124.12,113.47 -443.34,547.55 -536.67,804.21 -66.19,182.04 -153.29,408.02 -146.85,554.1 1.25,28.33 6.51,66.74 26.85,78.4 31.14,17.87 35.54,15.97 53.36,20.35 4.13,1.01 7.5,1.25 15.07,1.09 -164.06,84.83 -361.05,154.56 -554.64,169.54 -37.13,-53.87 -62.35,-158.25 -7.12,-360.14 106.67,-390 338.42,-1131.36 862.55,-1650.69 0,0 110.7,-135.56 259.13,-123.54 87.01,148.18 147.91,313.51 176.41,489.72 -50.44,-20.48 -103.84,-23.48 -148.09,16.96"
             id="path122"
             style="fill:url(#radialGradient108);fill-opacity:1;fill-rule:nonzero;stroke:none" /></g></g><path
         d="m 444.844,1111.25 c -45.598,-44.82 -70.735,-103.59 -70.735,-165.629 0,-136.832 107.961,-240.051 251.036,-240.051 141.925,0 253.117,106.961 253.117,243.391 0,61.489 -24.239,119.429 -68.301,163.499 -46.133,46.11 -109.387,71.35 -177.996,71.11 -71.406,1.6 -137.871,-24.08 -187.121,-72.32 l 0,0 z m 14.179,-159.57 c 0,103.08 69.2,175.09 168.157,175.09 107.859,0 166.179,-98.68 166.179,-191.43 0,-101.809 -67.773,-172.981 -164.785,-172.981 -104.726,0 -169.551,98.289 -169.551,189.321 l 0,0 z m 705.427,220.22 -3.83,0 0,-8.4 2.23,-0.98 c 10.02,-4.55 15.74,-10.24 17.66,-17.27 4.12,-16.13 -12.55,-38.62 -27.18,-58.31 l -9.64,-13.34 0.04,0.16 -90.45,-120.709 152.1,-205.68 c 13.23,-18.211 46.03,-30.82 79.35,-30.82 l 67.54,0 0,8.32 -2.26,1.07 c -35.81,17.641 -60.38,36.957 -79.83,62.778 0,0 -118.98,157.062 -134.77,177.883 3.57,4.617 158.52,204.628 158.52,204.628 l -7.93,0.67 -121.55,0 0,0 z m -84.71,0 -133.822,0 0,-8.56 2.48,-0.98 c 28.821,-10.74 28.372,-51.11 28.04,-80.72 l -0.122,-8.77 0,-256.581 0.122,-8.937 c 0.332,-29.762 0.781,-70.512 -28.04,-81.34 l -2.48,-0.91 0,-8.551 137.702,0 0,8.551 -2.53,0.91 c -28.79,10.828 -28.37,51.578 -28,81.187 l 0.02,9.09 0,256.581 -0.02,8.77 c -0.37,29.76 -0.79,70.51 27.93,80.72 l 2.6,0.91 0,8.63 -3.88,0 0,0 z m 429.97,0 -132.5,0 0,-8.56 2.5,-0.98 c 28.47,-10.59 27.96,-49.07 27.35,-79.88 l -0.08,-10.38 0,-256.42 0.08,-9.051 c 0.37,-29.731 0.82,-70.438 -27.28,-80.617 l -2.57,-0.91 0,-8.551 136.36,0 0,8.551 -2.5,0.91 c -28.11,10.758 -27.66,51.129 -27.36,80.617 l 0.08,9.051 0,256.42 -0.08,9.01 c -0.3,29.77 -0.75,70.51 27.36,81.25 l 2.5,0.98 0,8.56 -3.86,0 0,0 z m 142.48,-60.65 c -45.54,-44.82 -70.64,-103.59 -70.64,-165.629 0,-136.832 107.86,-240.051 251.08,-240.051 141.78,0 252.96,106.961 252.96,243.391 0,61.489 -24.19,119.429 -68.22,163.499 -46.21,46.11 -109.37,71.35 -178.03,71.11 -71.38,1.6 -137.88,-24.08 -187.15,-72.32 l 0,0 z m 14.24,-159.57 c 0,103.08 69.18,175.09 168.16,175.09 107.94,0 166.13,-98.68 166.13,-191.43 0,-101.809 -67.76,-172.981 -164.77,-172.981 -104.71,0 -169.52,98.289 -169.52,189.321 l 0,0 z m 1100.41,220.22 -121.06,0 0,-4.54 c 0,-13.63 -4.52,-26.5 -9.95,-40.81 0,-0.08 -102.52,-263.011 -109,-279.601 -6.92,16.442 -123.61,291.261 -123.61,291.261 0,0.07 -1.97,4.61 -1.97,4.61 -3.54,8.03 -7.14,16.13 -7.14,24.54 l 0,3.87 -3.86,0.67 -122.32,0 0,-8.24 1.95,-1.06 c 26.08,-14.24 22.78,-35.43 19.84,-54.23 l -0.84,-5.07 -38.52,-285.12 c 0,0.082 -0.6,-3.481 -0.6,-3.481 -5.14,-35.379 -9.66,-65.98 -36.11,-89.379 l -1.27,-1.16 0,-7.609 118.11,0 0,8.32 -2.35,1.07 c -18.16,8.11 -23.28,21.829 -23.28,40.957 0,10.844 1.58,23.403 3.55,37.793 0,0 33.68,255.739 37.08,281.339 10.17,-24.02 123.07,-293.678 123.07,-293.678 16.99,-39.532 27.14,-58.071 60.92,-83.903 l 4.07,-3.097 c 0,0 137.56,353.498 147.95,380.228 3.25,-27.94 36.8,-312.58 36.8,-312.58 0,-23.211 -4.37,-40.32 -25.11,-46.918 l -2.71,-0.82 0,-8.711 138.32,0 0,7.871 -1.58,1.207 c -25.64,18.07 -28.96,35.301 -32.94,66.691 l -44.71,334 c 0,6.81 1.37,30.97 18.24,35.9 l 2.85,0.9 0,8.78 -3.82,0 0,0 z m 362.1,0 -110.8,0 0,-8.7 2.63,-0.98 c 8.3,-2.5 13.57,-6.45 16.21,-11.82 5.28,-11.06 -1.43,-27.94 -7.23,-42.94 l -1.21,-3.33 -113.15,-283.689 c 0,-0.062 -3.69,-9.601 -3.69,-9.601 -13.03,-34.688 -25.47,-67.559 -60.15,-84.981 l -2.12,-0.988 0,-8.32 132.39,0 0,8.551 -2.58,0.91 c -10.78,4.097 -17.19,8.949 -19.97,15.297 -1.36,2.851 -1.97,6.121 -1.97,9.851 0,10.371 4.75,24.012 10.63,39.981 0,0 28.95,78.761 34.3,93.449 5.13,0 160.33,0 165.39,0 1.78,-4.699 35.56,-93.449 35.56,-93.449 l 3.17,-8.25 c 7.01,-17.961 11.15,-28.743 11.15,-36.282 0,-9.39 -6.32,-13.711 -21.78,-20.668 l -2.26,-1.07 0,-8.32 146.53,0 0,8.168 -2.1,1.14 c -34.01,17.422 -46.97,50.102 -60.69,84.743 l -3.84,9.839 -141.86,351.459 -2.56,0 0,0 z m -44.7,-72.31 c 6.12,-16.07 57.06,-147.598 60.76,-156.918 -9.89,0 -112.25,0 -122.11,0 3.62,9.32 55.1,140.928 61.35,156.918 l 0,0 z m 294.21,72.31 -3.94,0 0,-8.56 2.49,-0.98 c 28.42,-10.59 27.8,-49.07 27.36,-79.88 l -0.07,-10.38 0,-256.42 0.07,-10.149 c 0.44,-29.301 1.06,-69.34 -27.29,-79.519 l -2.56,-0.832 0,-8.629 137.03,0 0,8.629 -2.48,0.832 c -25.62,9.09 -28.04,42.25 -28.04,70.289 0,3.551 0,6.961 0,10.328 l 0,9.051 c 0,0 0,294.9 0,301.4 16.43,2.72 29.77,4.39 42.37,4.92 24.32,1.08 47.24,-6.89 62.77,-21.88 13.5,-12.87 20.67,-30.14 20.67,-49.75 0,-66.35 -71.39,-87.1 -113.98,-93.46 l -5.88,-0.898 65.58,-100.953 c 0.22,-0.379 82.85,-103.067 82.85,-103.067 20.57,-25.562 43.4,-35.441 81.55,-35.441 l 75.69,0 -11.32,7.14 c -41.98,26.618 -82.69,61.848 -108.84,94.411 0,0 -76.74,97.007 -93.94,118.668 53.08,14.539 105.01,59.82 105.01,121.69 0,68.92 -56.52,113.44 -144.04,113.44 l -161.06,0 0,0 z m 573.06,0 -132.43,0 0,-8.56 2.49,-0.98 c 28.41,-10.59 27.88,-49.07 27.43,-79.88 l -0.15,-10.38 0,-256.42 0.15,-9.051 c 0.31,-29.731 0.76,-70.438 -27.35,-80.617 l -2.57,-0.91 0,-8.551 136.34,0 0,8.551 -2.39,0.91 c -28.2,10.758 -27.76,51.129 -27.43,80.617 l 0,274.481 c -0.33,29.77 -0.77,70.51 27.43,81.25 l 2.39,0.98 0,8.56 -3.91,0 0,0 z m 559.52,0 -123.02,0 0,-8.16 1.96,-1.14 c 32.65,-18.56 33.24,-42.35 33.24,-78.16 0,-0.68 0,-230.51 0,-250.909 -13.03,16.461 -240.97,305.599 -240.97,305.599 l -9.34,13.48 c -4.76,5.36 -7.18,8.4 -9.65,16.04 l -0.91,2.58 -2.79,0.67 -102.67,0 0,-8.16 1.9,-1.07 c 33.39,-19.32 33.39,-44.45 33.39,-82.39 l 0,-271.491 c 0,-37.949 0,-63.059 -34.07,-83.039 l -1.87,-1.102 0,-8.097 127.51,0 0,8.097 -1.95,1.102 c -32.64,19.191 -33.25,43.051 -33.25,78.941 0,0.7 0,235.749 0,256.209 12.9,-16.44 225.39,-287.111 225.39,-287.111 28.85,-37.598 50.04,-61.777 100.61,-78.898 l 5.22,-1.75 0,387.139 c 0,37.94 0,63.07 33.23,82.39 l 1.89,1.07 0,8.16 -3.85,0 0,0 z m 344.01,3.34 -2.93,0 -0.91,-0.45 c -6.33,-3.34 -14.71,-3.19 -23.59,-3.03 l -6.42,0.14 -220.62,0 0,-8.63 2.65,-0.91 c 28.78,-10.74 28.32,-51.48 28.04,-81.17 l -0.17,-9.09 0,-256.51 0.17,-8.918 c 0.28,-29.774 0.74,-70.43 -28.04,-80.66 l -2.65,-0.91 0,-8.633 289.07,0 33.16,96.863 -8.88,0 -1.06,-0.91 c -32.41,-28.613 -78.16,-43.281 -122.49,-39.313 0,0 -76.05,7.36 -82.46,7.891 0,6.582 0,146.68 0,153.801 6.56,0 48.32,0 48.32,0 20.27,0.09 45.45,0.09 54.8,-17.039 l 1.12,-1.973 8.21,0 0,79.902 -6.85,0 -0.76,-0.39 c -7.38,-3.77 -17.95,-3.77 -28.12,-3.77 0,0 -69.71,0 -76.72,0 0,7.11 0,112.979 0,119.349 21.09,3.54 43.63,4.23 65.2,4.23 28.86,0 56.54,-1.98 76.96,-25.75 l 1.21,-1.43 7.68,0 0,87.31 -3.92,0 0,0 z M 811.863,469.75 l -3.054,0 -0.911,-0.531 c -6.226,-3.328 -14.597,-3.188 -23.457,-2.957 l -6.394,0.078 -220.606,0 0,-9.02 2.696,-1.019 c 28.625,-10.711 28.164,-51.219 27.843,-80.832 l -0.082,-9.098 0,-256.191 0.082,-8.938 c 0.34,-29.6131 0.782,-70.2029 -27.765,-80.2615 l -2.774,-0.9883 0,-9.1016 289.161,0 33.253,97.2384 -9.328,0 -1.172,-0.969 C 837.109,78.5898 791.477,64 747.285,68.0703 c 0,0 -75.371,7.1211 -82.156,7.8086 0,6.9297 0,145.5511 0,153.2031 6.891,0 47.984,0 47.984,0 20.157,0 45.254,0 54.575,-16.934 l 1.179,-2.109 8.528,0 0,80.313 -7.082,0 -0.872,-0.461 c -7.246,-3.629 -17.753,-3.629 -27.925,-3.629 0,0 -69.004,0 -76.387,0 0,7.488 0,111.918 0,118.578 20.957,3.609 43.465,4.32 64.871,4.32 28.809,0 56.328,-1.949 76.746,-25.75 l 1.223,-1.441 7.976,0 0,87.781 -4.082,0 0,0 z M 923.379,235.891 C 923.379,92.6211 1033.07,0 1202.78,0 c 53.96,0 104.83,9.60938 158.72,19.7695 l 8.74,1.6602 -2,4.6914 c -3.19,7.5703 -3.12,16.5078 -3.04,25.1484 l 0,160.1605 c 0,9.972 0,20.222 3.08,27.652 l 0.3,0.738 0,6.969 -111.7,0 0,-8.918 2.56,-1.062 c 26.46,-10.618 28.53,-38.098 28.53,-72.93 0,0 0,-88.3399 0,-94.547 -27.99,-7.8398 -58.94,-12.1601 -89.92,-12.1601 -106.18,0 -189.37,82.6871 -189.37,188.2581 0,102.769 74.82,174.601 181.93,174.601 24.78,0 85.79,-3.82 117.38,-39.422 l 1.2,-1.367 8,0 0,85.66 -3.24,0.688 c -36.94,7.789 -71.93,11.621 -107.09,11.621 -169.57,0 -283.481,-96.969 -283.481,-241.32 l 0,0 z m 948.121,230.449 -132.67,0 0,-9.02 2.64,-0.98 c 28.04,-10.719 27.59,-50.891 27.21,-80.27 l -0.06,-9.007 0,-207.665 c 0,-22.789 0.06,-37.859 -13.42,-56.328 -20.06,-28.7809 -55.79,-45.8981 -95.43,-45.8981 -69.65,0 -103.5,42.0195 -103.5,128.4301 l 0,181.461 -0.08,9.007 c -0.29,29.379 -0.75,69.551 27.22,80.27 l 2.64,0.98 0,9.02 -136.72,0 0,-9.02 2.69,-1.019 c 28.2,-10.559 27.6,-50.199 27.14,-79.172 l -0.08,-10.066 0,-186.602 c -0.07,-47.481 -0.07,-92.3321 35.6,-131.5313 C 1543.09,17.8711 1588.84,0 1640.18,0 c 41.6,0 95.43,13.3203 128.44,49.2188 0,-12.4102 0,-38.3282 0,-38.3282 l 107.63,0 0,9.0313 -2.64,0.9765 c -28.64,10.7539 -28.18,51.0118 -27.82,80.4216 l 0.08,8.86 0,256.191 -0.08,9.098 c -0.36,29.613 -0.82,70.121 27.82,80.832 l 3.68,1.398 -2.86,8.641 -2.93,0 0,0 z m 759.25,0 -111.03,0 0,-9.199 2.96,-0.922 c 8.2,-2.567 13.41,-6.418 15.97,-11.77 5.2,-10.898 -1.36,-27.789 -7.17,-42.617 l -1.27,-3.352 -112.98,-283.371 c 0,-0.07 -3.64,-9.699 -3.64,-9.699 -11.32,-29.8709 -22.1,-58.3397 -47.05,-76.7186 -36.29,25.0781 -70.27,55.6484 -93.14,84.0706 0,0 -76.05,95.949 -93.68,118.289 52.98,14.679 104.68,59.859 104.68,121.769 0,68.95 -56.53,113.52 -144.12,113.52 l -165.06,0 0,-9.02 2.63,-1.019 c 28.28,-10.559 27.67,-48.84 27.22,-79.621 l -0.09,-10.309 0,-256.191 0.09,-10.098 c 0.45,-29.1601 1.06,-69.1836 -27.14,-79.1015 l -2.71,-0.9883 0,-9.1016 137.39,0 0,9.1016 -2.7,0.9883 c -25.41,8.9297 -27.9,41.9609 -27.9,69.8906 0,3.4805 0.08,6.9297 0.08,10.2309 l 0.08,9.078 c 0,0 0,293.992 0,300.871 16.13,2.73 29.48,4.359 42.06,4.918 24.19,1.062 46.96,-6.887 62.49,-21.789 13.41,-12.84 20.51,-30 20.51,-49.539 0,-66.121 -71.17,-86.711 -113.53,-93.11 l -6.34,-0.941 65.74,-101.231 c 0.22,-0.328 82.77,-102.9293 82.77,-102.9293 20.65,-25.6094 43.55,-35.5391 81.7,-35.5391 l 166.43,0 0,9.0313 -2.64,0.9765 c -15.6,5.9102 -21.71,13.2618 -21.71,25.0625 0,9.6289 4.07,22.3399 10.55,39.6211 0,0.0586 29.33,79.957 34.22,93.219 5.43,0 159.42,0 164.79,0 1.87,-5.031 35.49,-93.219 35.49,-93.219 l 3.24,-8.2734 c 7.02,-18.168 11.15,-28.8398 11.15,-36.2695 0,-9.2383 -6.4,-13.3282 -21.71,-20.2188 l -2.41,-1.1211 0,-8.8086 146.91,0 0,8.7305 -2.26,1.1211 c -33.92,17.3476 -46.82,49.9883 -60.46,84.5198 l -3.92,9.847 -141.69,351.231 -2.8,0 0,0 z m -44.69,-73.238 c 6.55,-16.852 56.53,-145.911 60.3,-155.813 -10.4,0 -110.73,0 -121.2,0 3.84,9.93 54.33,139.012 60.9,155.813 l 0,0 z m 2009.81,73.238 -110.96,0 0,-9.199 2.87,-0.922 c 8.22,-2.567 13.5,-6.418 16.07,-11.77 5.18,-10.898 -1.44,-27.789 -7.24,-42.617 l -1.29,-3.352 -112.9,-283.371 c -0.08,-0.07 -3.7,-9.699 -3.7,-9.699 -11.27,-29.8592 -22.02,-58.3202 -47.01,-76.7108 -36.34,25.0821 -70.31,55.6406 -93.19,84.0628 0,0 -75.97,95.949 -93.62,118.289 52.99,14.679 104.69,59.859 104.69,121.769 0,68.95 -56.6,113.52 -144.11,113.52 l -165.15,0 0,-9.02 2.72,-1.019 c 28.19,-10.559 27.66,-48.84 27.2,-79.621 l -0.15,-10.309 0,-256.191 0.15,-10.098 c 0.38,-29.1601 0.99,-69.1836 -27.12,-79.1015 l -2.8,-0.9883 0,-9.1016 137.41,0 0,9.1016 -2.72,0.9883 c -25.39,8.9297 -27.8,41.9609 -27.8,69.8906 0,3.4805 0,6.9297 0.07,10.2309 l 0,9.078 c 0,0 0,293.992 0,300.871 16.21,2.73 29.47,4.359 42.13,4.918 24.19,1.062 46.97,-6.887 62.5,-21.789 13.41,-12.84 20.5,-30 20.5,-49.539 0,-66.121 -71.16,-86.711 -113.6,-93.11 l -6.25,-0.941 65.65,-101.231 c 0.3,-0.328 82.83,-102.9293 82.83,-102.9293 20.59,-25.6094 43.5,-35.5391 81.63,-35.5391 l 166.45,0 0,9.0313 -2.67,0.9765 c -15.51,5.9102 -21.69,13.2618 -21.69,25.0625 0,9.6289 4.15,22.3399 10.55,39.6211 0,0.0586 29.4,79.957 34.22,93.219 5.43,0 159.41,0 164.78,0 1.95,-5.031 35.49,-93.219 35.49,-93.219 l 3.25,-8.2734 c 7.02,-18.168 11.15,-28.8398 11.15,-36.2695 0,-9.2383 -6.4,-13.3282 -21.7,-20.2188 l -2.41,-1.1211 0,-8.8086 146.89,0 0,8.7305 -2.26,1.1211 c -33.9,17.3476 -46.8,49.9883 -60.45,84.5198 l -3.91,9.847 -141.71,351.231 -2.79,0 0,0 z m -44.62,-73.238 c 6.47,-16.852 56.46,-145.911 60.3,-155.813 -10.48,0 -110.8,0 -121.27,0 3.91,9.93 54.33,139.012 60.97,155.813 l 0,0 z m -1667.69,73.238 -4.07,0 0,-9.25 2.95,-0.899 c 27.87,-8.25 27.35,-46.269 26.91,-76.8 l -0.08,-10.289 0,-256.18 0.08,-11.723 c 0.3,-34.1873 0.59,-61.1404 -28.04,-80.7498 l -1.82,-1.207 0,-8.3516 166.44,0 c 151.81,0 257.77,95.3084 257.77,231.8084 0,137.949 -97.44,223.641 -254.38,223.641 l -165.76,0 0,0 z m 159.66,-57.18 c 114.64,0 175.16,-60.39 175.16,-174.629 0,-122.761 -96.4,-166.4607 -186.63,-166.4607 -16.43,0 -31.2,1.4805 -45.29,4.1797 0,6.8906 0,323.441 0,330.09 19.89,4.48 38.59,6.82 56.76,6.82 l 0,0 z m 397.45,-3.558 C 3395.07,360.84 3369.97,302.039 3369.97,239.98 3369.97,103.141 3477.91,0 3621.04,0 c 141.85,0 253.02,106.891 253.02,243.391 0,61.418 -24.25,119.468 -68.28,163.488 -46.13,46.141 -109.36,71.351 -178.04,71.012 -71.37,1.711 -137.85,-23.961 -187.07,-72.289 l 0,0 z m 14.62,-159.493 c 0,102.77 68.97,174.602 167.72,174.602 107.62,0 165.74,-98.379 165.74,-190.949 0,-101.633 -67.62,-172.5901 -164.39,-172.5901 -104.4,0 -169.07,98.0701 -169.07,188.9371 l 0,0 z M 162.402,354.82 c 0,-80.23 70.203,-111.73 132.118,-139.609 51.73,-23.231 100.609,-45.172 100.609,-91.469 0,-43.4412 -53.813,-66.5701 -92.641,-66.5701 -51.14,0 -105.515,20.75 -145.468,55.4491 l -9.532,8.238 22.981,-99.4293 2.07,-0.7695 C 209.563,6.96094 250.762,0 295.059,0 c 102.238,0 185.379,64.9688 185.379,144.82 0,70.27 -70.008,102.399 -131.805,130.762 -51.887,23.809 -100.899,46.297 -100.899,86.699 0,42.629 44.817,57.75 83.157,57.75 38.242,0 78.765,-16.32 103.281,-41.57 l 7.027,-7.242 0,89.961 -2.886,0.91 c -31.997,10.012 -66.301,15.121 -102.004,15.121 -80.215,0 -173.907,-32.039 -173.907,-122.391 l 0,0 z m 196.875,821.86 -2.812,0 -0.84,-0.37 c -8.32,-3.88 -19.141,-4.41 -29.52,-4.41 l -269.437,0 c -0.0469,0 -7.0117,0.92 -7.0117,0.92 -6.1797,0.76 -11.9493,1.37 -17.3516,3.55 l -0.6953,0.31 -5.6602,0 L 0,1088.01 l 8.71875,0 1.06641,0.97 c 17.98044,16.81 45.62504,26.2 77.94924,26.2 0,0 49.0116,0 55.7036,0 0,-7.57 0,-299.5 0,-299.5 l 0.109,-9.051 c 0.105,-3.367 0.105,-6.859 0.105,-10.488 0,-27.789 -2.492,-60.571 -27.461,-70.129 l -2.48,-0.91 0,-8.551 141.769,0 0,8.097 -1.894,1.102 c -32.766,19.191 -33.281,43.051 -33.281,78.859 0,0.782 0,303.001 0,310.571 6.726,0 57.058,0 57.058,0 21.223,0 46.485,-2.8 54.59,-24.68 l 0.945,-2.49 7.649,0 23.777,88.67 -5.047,0 0,0"
         id="path124"
         style="fill:#231f20;fill-opacity:1;fill-rule:evenodd;stroke:none" /></g></g></svg>